grf
version=1
nRows=6
nColumns=37
inDegrees=no
endheader
time	ground_force_1_vx	ground_force_1_vy	ground_force_1_vz	ground_force_1_px	ground_force_1_py	ground_force_1_pz	ground_moment_1_mx	ground_moment_1_my	ground_moment_1_mz	ground_force_2_vx	ground_force_2_vy	ground_force_2_vz	ground_force_2_px	ground_force_2_py	ground_force_2_pz	ground_moment_2_mx	ground_moment_2_my	ground_moment_2_mz	ground_force_3_vx	ground_force_3_vy	ground_force_3_vz	ground_force_3_px	ground_force_3_py	ground_force_3_pz	ground_moment_3_mx	ground_moment_3_my	ground_moment_3_mz	ground_force_4_vx	ground_force_4_vy	ground_force_4_vz	ground_force_4_px	ground_force_4_py	ground_force_4_pz	ground_moment_4_mx	ground_moment_4_my	ground_moment_4_mz
      4.14000000	      0.00000000	     -0.00000000	      0.00000000	      0.00000000	      0.00000000	      0.00000000	      0.00000000	      0.00000000	      0.00000000	     -3.62578821	     44.79859161	   -404.55078125	   -302.64989952	  -1120.69089944	      0.00000000	      0.00000000	      0.00000000	   2710.22517418	     -1.58120933	    -43.94328676	   -422.15664673	   -269.04813842	   -664.01325558	      0.00000000	      0.00000000	     -0.00000000	   -406.44881243	      0.00000000	     -0.00000000	      0.00000000	      0.00000000	      0.00000000	      0.00000000	      0.00000000	      0.00000000	      0.00000000
      4.15000000	      0.00000000	     -0.00000000	      0.00000000	      0.00000000	      0.00000000	      0.00000000	      0.00000000	      0.00000000	      0.00000000	     -3.58568239	     44.11378860	   -402.75048828	   -302.94757757	  -1119.75059073	      0.00000000	      0.00000000	      0.00000000	   2636.24666396	     -0.91061476	    -43.98419944	   -423.77160645	   -269.84086330	   -664.35255023	      0.00000000	      0.00000000	     -0.00000000	   -623.12347304	      0.00000000	     -0.00000000	      0.00000000	      0.00000000	      0.00000000	      0.00000000	      0.00000000	      0.00000000	      0.00000000
      4.16000000	      0.00000000	     -0.00000000	      0.00000000	      0.00000000	      0.00000000	      0.00000000	      0.00000000	      0.00000000	      0.00000000	     -3.32342815	     44.71206665	   -404.05258179	   -303.25969640	  -1120.70964113	      0.00000000	      0.00000000	      0.00000000	   2635.81300148	     -0.05710237	    -43.78454208	   -423.80319214	   -270.77796562	   -664.97441860	      0.00000000	      0.00000000	     -0.00000000	   -526.07857308	      0.00000000	     -0.00000000	      0.00000000	      0.00000000	      0.00000000	      0.00000000	      0.00000000	      0.00000000	      0.00000000
      4.17000000	      0.00000000	     -0.00000000	      0.00000000	      0.00000000	      0.00000000	      0.00000000	      0.00000000	      0.00000000	      0.00000000	     -3.37220430	     43.58932877	   -401.83026123	   -303.99285739	  -1119.30735221	      0.00000000	      0.00000000	      0.00000000	   2594.43537512	     -0.01721589	    -43.44273758	   -424.79376221	   -270.91526615	   -664.54529042	      0.00000000	      0.00000000	     -0.00000000	   -463.35113690	      0.00000000	     -0.00000000	      0.00000000	      0.00000000	      0.00000000	      0.00000000	      0.00000000	      0.00000000	      0.00000000
      4.18000000	      0.00000000	     -0.00000000	      0.00000000	      0.00000000	      0.00000000	      0.00000000	      0.00000000	      0.00000000	      0.00000000	     -2.62720013	     42.87172699	   -402.34338379	   -303.77628924	  -1120.11674131	      0.00000000	      0.00000000	      0.00000000	   2671.38299134	      0.19122634	    -43.21174242	   -424.60275269	   -270.87505669	   -664.48660440	      0.00000000	      0.00000000	     -0.00000000	   -573.15819124	      0.00000000	     -0.00000000	      0.00000000	      0.00000000	      0.00000000	      0.00000000	      0.00000000	      0.00000000	      0.00000000
      4.19000000	      0.00000000	     -0.00000000	      0.00000000	      0.00000000	      0.00000000	      0.00000000	      0.00000000	      0.00000000	      0.00000000	     -2.02099943	     42.85924530	   -400.26184082	   -304.02685864	  -1118.77810668	      0.00000000	      0.00000000	      0.00000000	   2811.98851091	      0.24397847	    -44.31543352	   -425.03967285	   -271.54789532	   -664.90030965	      0.00000000	      0.00000000	     -0.00000000	   -497.93320223	      0.00000000	     -0.00000000	      0.00000000	      0.00000000	      0.00000000	      0.00000000	      0.00000000	      0.00000000	      0.00000000
